<svg version="1.1" viewBox="0.0 0.0 1090.0 673.0" fill="none" stroke="none" stroke-linecap="square" stroke-miterlimit="10" width="1090" height="673" xmlns:xlink="http://www.w3.org/1999/xlink" xmlns="http://www.w3.org/2000/svg"><path fill="#fffaf4" d="M0 0L1090.0 0L1090.0 673.0L0 673.0L0 0Z" fill-rule="nonzero"/><path stroke="#efe2d2" stroke-width="1.0" stroke-linecap="butt" d="M221.5 125.5L221.5 618.5" fill-rule="nonzero"/><path stroke="#efe2d2" stroke-width="1.0" stroke-linecap="butt" d="M429.5 125.5L429.5 618.5" fill-rule="nonzero"/><path stroke="#efe2d2" stroke-width="1.0" stroke-linecap="butt" d="M640.5 125.5L640.5 618.5" fill-rule="nonzero"/><path stroke="#efe2d2" stroke-width="1.0" stroke-linecap="butt" d="M850.5 125.5L850.5 618.5" fill-rule="nonzero"/><path stroke="#302f2e" stroke-width="1.0" stroke-linecap="butt" d="M84.5 618.5L1056.5 618.5" fill-rule="nonzero"/><path stroke="#efe2d2" stroke-width="1.0" stroke-linecap="butt" d="M84.5 453.5L1056.5 453.5" fill-rule="nonzero"/><path stroke="#efe2d2" stroke-width="1.0" stroke-linecap="butt" d="M84.5 289.5L1056.5 289.5" fill-rule="nonzero"/><path stroke="#efe2d2" stroke-width="1.0" stroke-linecap="butt" d="M84.5 125.5L1056.5 125.5" fill-rule="nonzero"/><clipPath id="id_0"><path d="M84.65 125.01667L1056.35 125.01667L1056.35 618.35L84.65 618.35L84.65 125.01667Z" clip-rule="nonzero"/></clipPath><path stroke="#4285f4" stroke-width="4.0" stroke-linecap="butt" clip-path="url(#id_0)" d="M84.65 618.35L148.66788 589.7367L219.54483 181.91444L288.1354 210.36333L359.01236 128.63445L427.60294 253.61223L498.4799 278.2789L569.3568 242.1011L637.9474 239.05888L708.82434 265.69888L777.4149 271.68466L848.2919 225.78822L919.1688 279.66022L985.4731 303.12643L1056.35 313.5851" fill-rule="nonzero"/><path stroke="#ea4335" stroke-width="4.0" stroke-linecap="butt" clip-path="url(#id_0)" d="M569.3568 618.35L637.9474 530.882L708.82434 550.40155L777.4149 522.0349L848.2919 472.5042L919.1688 439.48376L985.4731 414.63623L1056.35 405.62466" fill-rule="nonzero"/><path fill="#000000" fill-opacity="0.0" clip-path="url(#id_0)" d="M87.65 618.35C87.65 620.00684 86.306854 621.35 84.65 621.35C82.99315 621.35 81.65 620.00684 81.65 618.35C81.65 616.6931 82.99315 615.35 84.65 615.35C86.306854 615.35 87.65 616.6931 87.65 618.35Z" fill-rule="nonzero"/><path fill="#000000" fill-opacity="0.0" clip-path="url(#id_0)" d="M151.66788 589.7367C151.66788 591.3935 150.32474 592.7367 148.66788 592.7367C147.01103 592.7367 145.66788 591.3935 145.66788 589.7367C145.66788 588.07983 147.01103 586.7367 148.66788 586.7367C150.32474 586.7367 151.66788 588.07983 151.66788 589.7367Z" fill-rule="nonzero"/><path fill="#000000" fill-opacity="0.0" clip-path="url(#id_0)" d="M222.54483 181.91444C222.54483 183.5713 221.20168 184.91444 219.54483 184.91444C217.88797 184.91444 216.54483 183.5713 216.54483 181.91444C216.54483 180.25758 217.88797 178.91444 219.54483 178.91444C221.20168 178.91444 222.54483 180.25758 222.54483 181.91444Z" fill-rule="nonzero"/><path fill="#000000" fill-opacity="0.0" clip-path="url(#id_0)" d="M291.1354 210.36333C291.1354 212.02019 289.79227 213.36333 288.1354 213.36333C286.47855 213.36333 285.1354 212.02019 285.1354 210.36333C285.1354 208.70648 286.47855 207.36333 288.1354 207.36333C289.79227 207.36333 291.1354 208.70648 291.1354 210.36333Z" fill-rule="nonzero"/><path fill="#000000" fill-opacity="0.0" clip-path="url(#id_0)" d="M362.01236 128.63445C362.01236 130.2913 360.66922 131.63445 359.01236 131.63445C357.3555 131.63445 356.01236 130.2913 356.01236 128.63445C356.01236 126.97759 357.3555 125.634445 359.01236 125.634445C360.66922 125.634445 362.01236 126.97759 362.01236 128.63445Z" fill-rule="nonzero"/><path fill="#000000" fill-opacity="0.0" clip-path="url(#id_0)" d="M430.60294 253.61223C430.60294 255.26907 429.2598 256.6122 427.60294 256.6122C425.94608 256.6122 424.60294 255.26907 424.60294 253.61223C424.60294 251.95537 425.94608 250.61223 427.60294 250.61223C429.2598 250.61223 430.60294 251.95537 430.60294 253.61223Z" fill-rule="nonzero"/><path fill="#000000" fill-opacity="0.0" clip-path="url(#id_0)" d="M501.4799 278.2789C501.4799 279.93573 500.13675 281.2789 498.4799 281.2789C496.82303 281.2789 495.4799 279.93573 495.4799 278.2789C495.4799 276.62204 496.82303 275.2789 498.4799 275.2789C500.13675 275.2789 501.4799 276.62204 501.4799 278.2789Z" fill-rule="nonzero"/><path fill="#000000" fill-opacity="0.0" clip-path="url(#id_0)" d="M572.3568 242.1011C572.3568 243.75797 571.0137 245.1011 569.3568 245.1011C567.69995 245.1011 566.3568 243.75797 566.3568 242.1011C566.3568 240.44426 567.69995 239.1011 569.3568 239.1011C571.0137 239.1011 572.3568 240.44426 572.3568 242.1011Z" fill-rule="nonzero"/><path fill="#000000" fill-opacity="0.0" clip-path="url(#id_0)" d="M640.9474 239.05888C640.9474 240.71574 639.60425 242.05888 637.9474 242.05888C636.2905 242.05888 634.9474 240.71574 634.9474 239.05888C634.9474 237.40204 636.2905 236.05888 637.9474 236.05888C639.60425 236.05888 640.9474 237.40204 640.9474 239.05888Z" fill-rule="nonzero"/><path fill="#000000" fill-opacity="0.0" clip-path="url(#id_0)" d="M711.82434 265.69888C711.82434 267.35574 710.4812 268.69888 708.82434 268.69888C707.1675 268.69888 705.82434 267.35574 705.82434 265.69888C705.82434 264.04202 707.1675 262.69888 708.82434 262.69888C710.4812 262.69888 711.82434 264.04202 711.82434 265.69888Z" fill-rule="nonzero"/><path fill="#000000" fill-opacity="0.0" clip-path="url(#id_0)" d="M780.4149 271.68466C780.4149 273.34152 779.0718 274.68466 777.4149 274.68466C775.75806 274.68466 774.4149 273.34152 774.4149 271.68466C774.4149 270.0278 775.75806 268.68466 777.4149 268.68466C779.0718 268.68466 780.4149 270.0278 780.4149 271.68466Z" fill-rule="nonzero"/><path fill="#000000" fill-opacity="0.0" clip-path="url(#id_0)" d="M851.2919 225.78822C851.2919 227.44508 849.9487 228.78822 848.2919 228.78822C846.635 228.78822 845.2919 227.44508 845.2919 225.78822C845.2919 224.13136 846.635 222.78822 848.2919 222.78822C849.9487 222.78822 851.2919 224.13136 851.2919 225.78822Z" fill-rule="nonzero"/><path fill="#000000" fill-opacity="0.0" clip-path="url(#id_0)" d="M922.1688 279.66022C922.1688 281.31708 920.8257 282.66022 919.1688 282.66022C917.51196 282.66022 916.1688 281.31708 916.1688 279.66022C916.1688 278.00336 917.51196 276.66022 919.1688 276.66022C920.8257 276.66022 922.1688 278.00336 922.1688 279.66022Z" fill-rule="nonzero"/><path fill="#000000" fill-opacity="0.0" clip-path="url(#id_0)" d="M988.4731 303.12643C988.4731 304.7833 987.1299 306.12643 985.4731 306.12643C983.8162 306.12643 982.4731 304.7833 982.4731 303.12643C982.4731 301.4696 983.8162 300.12643 985.4731 300.12643C987.1299 300.12643 988.4731 301.4696 988.4731 303.12643Z" fill-rule="nonzero"/><path fill="#000000" fill-opacity="0.0" clip-path="url(#id_0)" d="M1059.35 313.5851C1059.35 315.24197 1058.0068 316.5851 1056.35 316.5851C1054.6931 316.5851 1053.35 315.24197 1053.35 313.5851C1053.35 311.92825 1054.6931 310.5851 1056.35 310.5851C1058.0068 310.5851 1059.35 311.92825 1059.35 313.5851Z" fill-rule="nonzero"/><path fill="#000000" fill-opacity="0.0" clip-path="url(#id_0)" d="M572.3568 618.35C572.3568 620.00684 571.0137 621.35 569.3568 621.35C567.69995 621.35 566.3568 620.00684 566.3568 618.35C566.3568 616.6931 567.69995 615.35 569.3568 615.35C571.0137 615.35 572.3568 616.6931 572.3568 618.35Z" fill-rule="nonzero"/><path fill="#000000" fill-opacity="0.0" clip-path="url(#id_0)" d="M640.9474 530.882C640.9474 532.5389 639.60425 533.882 637.9474 533.882C636.2905 533.882 634.9474 532.5389 634.9474 530.882C634.9474 529.22516 636.2905 527.882 637.9474 527.882C639.60425 527.882 640.9474 529.22516 640.9474 530.882Z" fill-rule="nonzero"/><path fill="#000000" fill-opacity="0.0" clip-path="url(#id_0)" d="M711.82434 550.40155C711.82434 552.0584 710.4812 553.40155 708.82434 553.40155C707.1675 553.40155 705.82434 552.0584 705.82434 550.40155C705.82434 548.7447 707.1675 547.40155 708.82434 547.40155C710.4812 547.40155 711.82434 548.7447 711.82434 550.40155Z" fill-rule="nonzero"/><path fill="#000000" fill-opacity="0.0" clip-path="url(#id_0)" d="M780.4149 522.0349C780.4149 523.6918 779.0718 525.0349 777.4149 525.0349C775.75806 525.0349 774.4149 523.6918 774.4149 522.0349C774.4149 520.37805 775.75806 519.0349 777.4149 519.0349C779.0718 519.0349 780.4149 520.37805 780.4149 522.0349Z" fill-rule="nonzero"/><path fill="#000000" fill-opacity="0.0" clip-path="url(#id_0)" d="M851.2919 472.5042C851.2919 474.16107 849.9487 475.5042 848.2919 475.5042C846.635 475.5042 845.2919 474.16107 845.2919 472.5042C845.2919 470.84738 846.635 469.5042 848.2919 469.5042C849.9487 469.5042 851.2919 470.84738 851.2919 472.5042Z" fill-rule="nonzero"/><path fill="#000000" fill-opacity="0.0" clip-path="url(#id_0)" d="M922.1688 439.48376C922.1688 441.14062 920.8257 442.48376 919.1688 442.48376C917.51196 442.48376 916.1688 441.14062 916.1688 439.48376C916.1688 437.82693 917.51196 436.48376 919.1688 436.48376C920.8257 436.48376 922.1688 437.82693 922.1688 439.48376Z" fill-rule="nonzero"/><path fill="#000000" fill-opacity="0.0" clip-path="url(#id_0)" d="M988.4731 414.63623C988.4731 416.2931 987.1299 417.63623 985.4731 417.63623C983.8162 417.63623 982.4731 416.2931 982.4731 414.63623C982.4731 412.97937 983.8162 411.63623 985.4731 411.63623C987.1299 411.63623 988.4731 412.97937 988.4731 414.63623Z" fill-rule="nonzero"/><path fill="#000000" fill-opacity="0.0" clip-path="url(#id_0)" d="M1059.35 405.62466C1059.35 407.28152 1058.0068 408.62466 1056.35 408.62466C1054.6931 408.62466 1053.35 407.28152 1053.35 405.62466C1053.35 403.9678 1054.6931 402.62466 1056.35 402.62466C1058.0068 402.62466 1059.35 403.9678 1059.35 405.62466Z" fill-rule="nonzero"/><path fill="#1c2a3e" d="M52.665627 620.64685Q52.665627 620.1156 52.290627 619.7562Q51.915627 619.3812 51.009377 619.0687Q49.759377 618.6937 49.18125 618.08435Q48.61875 617.475 48.61875 616.52185Q48.61875 615.5687 49.18125 614.95935Q49.74375 614.33435 50.728127 614.225L50.728127 612.9281L51.5875 612.9281L51.5875 614.225Q52.571877 614.3656 53.11875 615.0531Q53.68125 615.7406 53.68125 616.9437L52.603127 616.9437Q52.603127 616.1156 52.196877 615.6312Q51.80625 615.14685 51.15 615.14685Q50.446877 615.14685 50.071877 615.5062Q49.7125 615.8656 49.7125 616.5062Q49.7125 617.1 50.103127 617.45935Q50.49375 617.8187 51.384377 618.1156Q52.275 618.39685 52.775 618.7562Q53.275 619.1 53.509377 619.5687Q53.74375 620.02185 53.74375 620.64685Q53.74375 621.6312 53.15 622.2406Q52.55625 622.83435 51.49375 622.9437L51.49375 624.0687L50.61875 624.0687L50.61875 622.9437Q49.525 622.85 48.9 622.1781Q48.290627 621.4906 48.290627 620.33435L49.384377 620.33435Q49.384377 621.14685 49.80625 621.58435Q50.228127 622.02185 51.025 622.02185Q51.790627 622.02185 52.228127 621.6625Q52.665627 621.2875 52.665627 620.64685ZM60.7125 619.20935Q60.7125 621.1156 60.05625 622.0531Q59.415627 622.975 58.025 622.975Q56.665627 622.975 56.009377 622.0687Q55.353127 621.1625 55.321877 619.35L55.321877 617.9125Q55.321877 616.02185 55.9625 615.1156Q56.61875 614.1937 58.009377 614.1937Q59.384377 614.1937 60.040627 615.08435Q60.696877 615.95935 60.7125 617.8031L60.7125 619.20935ZM59.61875 617.725Q59.61875 616.35 59.228127 615.725Q58.853127 615.08435 58.009377 615.08435Q57.18125 615.08435 56.790627 615.725Q56.415627 616.35 56.415627 617.64685L56.415627 619.3812Q56.415627 620.7562 56.80625 621.4281Q57.2125 622.08435 58.025 622.08435Q58.821877 622.08435 59.2125 621.45935Q59.603127 620.83435 59.61875 619.5062L59.61875 617.725ZM62.49375 622.2875Q62.49375 622.0062 62.65 621.8187Q62.821877 621.6312 63.15 621.6312Q63.49375 621.6312 63.665627 621.8187Q63.8375 622.0062 63.8375 622.2875Q63.8375 622.5531 63.665627 622.7406Q63.49375 622.9125 63.15 622.9125Q62.821877 622.9125 62.65 622.7406Q62.49375 622.5531 62.49375 622.2875ZM70.7125 619.20935Q70.7125 621.1156 70.05625 622.0531Q69.41563 622.975 68.025 622.975Q66.66563 622.975 66.00938 622.0687Q65.35313 621.1625 65.32188 619.35L65.32188 617.9125Q65.32188 616.02185 65.9625 615.1156Q66.61875 614.1937 68.00938 614.1937Q69.38438 614.1937 70.04063 615.08435Q70.69688 615.95935 70.7125 617.8031L70.7125 619.20935ZM69.61875 617.725Q69.61875 616.35 69.22813 615.725Q68.85313 615.08435 68.00938 615.08435Q67.18125 615.08435 66.79063 615.725Q66.41563 616.35 66.41563 617.64685L66.41563 619.3812Q66.41563 620.7562 66.80625 621.4281Q67.2125 622.08435 68.025 622.08435Q68.82188 622.08435 69.2125 621.45935Q69.60313 620.83435 69.61875 619.5062L69.61875 617.725ZM77.7125 619.20935Q77.7125 621.1156 77.05625 622.0531Q76.41563 622.975 75.025 622.975Q73.66563 622.975 73.00938 622.0687Q72.35313 621.1625 72.32188 619.35L72.32188 617.9125Q72.32188 616.02185 72.9625 615.1156Q73.61875 614.1937 75.00938 614.1937Q76.38438 614.1937 77.04063 615.08435Q77.69688 615.95935 77.7125 617.8031L77.7125 619.20935ZM76.61875 617.725Q76.61875 616.35 76.22813 615.725Q75.85313 615.08435 75.00938 615.08435Q74.18125 615.08435 73.79063 615.725Q73.41563 616.35 73.41563 617.64685L73.41563 619.3812Q73.41563 620.7562 73.80625 621.4281Q74.2125 622.08435 75.025 622.08435Q75.82188 622.08435 76.2125 621.45935Q76.60313 620.83435 76.61875 619.5062L76.61875 617.725Z" fill-rule="nonzero"/><path fill="#1c2a3e" d="M38.665627 456.20242Q38.665627 455.67117 38.290627 455.3118Q37.915627 454.9368 37.009377 454.6243Q35.759377 454.2493 35.18125 453.63992Q34.61875 453.03055 34.61875 452.07742Q34.61875 451.1243 35.18125 450.51492Q35.74375 449.88992 36.728127 449.78055L36.728127 448.48367L37.5875 448.48367L37.5875 449.78055Q38.571877 449.92117 39.11875 450.60867Q39.68125 451.29617 39.68125 452.4993L38.603127 452.4993Q38.603127 451.67117 38.196877 451.1868Q37.80625 450.70242 37.15 450.70242Q36.446877 450.70242 36.071877 451.0618Q35.7125 451.42117 35.7125 452.0618Q35.7125 452.65555 36.103127 453.01492Q36.49375 453.3743 37.384377 453.67117Q38.275 453.95242 38.775 454.3118Q39.275 454.65555 39.509377 455.1243Q39.74375 455.57742 39.74375 456.20242Q39.74375 457.1868 39.15 457.79617Q38.55625 458.38992 37.49375 458.4993L37.49375 459.6243L36.61875 459.6243L36.61875 458.4993Q35.525 458.40555 34.9 457.73367Q34.290627 457.04617 34.290627 455.88992L35.384377 455.88992Q35.384377 456.70242 35.80625 457.13992Q36.228127 457.57742 37.025 457.57742Q37.790627 457.57742 38.228127 457.21805Q38.665627 456.84305 38.665627 456.20242ZM44.915627 458.40555L43.8375 458.40555L43.8375 451.1868L41.65 451.98367L41.65 450.9993L44.759377 449.82742L44.915627 449.82742L44.915627 458.40555ZM53.7125 454.76492Q53.7125 456.67117 53.05625 457.60867Q52.415627 458.53055 51.025 458.53055Q49.665627 458.53055 49.009377 457.6243Q48.353127 456.71805 48.321877 454.90555L48.321877 453.46805Q48.321877 451.57742 48.9625 450.67117Q49.61875 449.7493 51.009377 449.7493Q52.384377 449.7493 53.040627 450.63992Q53.696877 451.51492 53.7125 453.35867L53.7125 454.76492ZM52.61875 453.28055Q52.61875 451.90555 52.228127 451.28055Q51.853127 450.63992 51.009377 450.63992Q50.18125 450.63992 49.790627 451.28055Q49.415627 451.90555 49.415627 453.20242L49.415627 454.9368Q49.415627 456.3118 49.80625 456.98367Q50.2125 457.63992 51.025 457.63992Q51.821877 457.63992 52.2125 457.01492Q52.603127 456.38992 52.61875 455.0618L52.61875 453.28055ZM60.7125 454.76492Q60.7125 456.67117 60.05625 457.60867Q59.415627 458.53055 58.025 458.53055Q56.665627 458.53055 56.009377 457.6243Q55.353127 456.71805 55.321877 454.90555L55.321877 453.46805Q55.321877 451.57742 55.9625 450.67117Q56.61875 449.7493 58.009377 449.7493Q59.384377 449.7493 60.040627 450.63992Q60.696877 451.51492 60.7125 453.35867L60.7125 454.76492ZM59.61875 453.28055Q59.61875 451.90555 59.228127 451.28055Q58.853127 450.63992 58.009377 450.63992Q57.18125 450.63992 56.790627 451.28055Q56.415627 451.90555 56.415627 453.20242L56.415627 454.9368Q56.415627 456.3118 56.80625 456.98367Q57.2125 457.63992 58.025 457.63992Q58.821877 457.63992 59.2125 457.01492Q59.603127 456.38992 59.61875 455.0618L59.61875 453.28055ZM62.49375 457.84305Q62.49375 457.5618 62.65 457.3743Q62.821877 457.1868 63.15 457.1868Q63.49375 457.1868 63.665627 457.3743Q63.8375 457.5618 63.8375 457.84305Q63.8375 458.10867 63.665627 458.29617Q63.49375 458.46805 63.15 458.46805Q62.821877 458.46805 62.65 458.29617Q62.49375 458.10867 62.49375 457.84305ZM70.7125 454.76492Q70.7125 456.67117 70.05625 457.60867Q69.41563 458.53055 68.025 458.53055Q66.66563 458.53055 66.00938 457.6243Q65.35313 456.71805 65.32188 454.90555L65.32188 453.46805Q65.32188 451.57742 65.9625 450.67117Q66.61875 449.7493 68.00938 449.7493Q69.38438 449.7493 70.04063 450.63992Q70.69688 451.51492 70.7125 453.35867L70.7125 454.76492ZM69.61875 453.28055Q69.61875 451.90555 69.22813 451.28055Q68.85313 450.63992 68.00938 450.63992Q67.18125 450.63992 66.79063 451.28055Q66.41563 451.90555 66.41563 453.20242L66.41563 454.9368Q66.41563 456.3118 66.80625 456.98367Q67.2125 457.63992 68.025 457.63992Q68.82188 457.63992 69.2125 457.01492Q69.60313 456.38992 69.61875 455.0618L69.61875 453.28055ZM77.7125 454.76492Q77.7125 456.67117 77.05625 457.60867Q76.41563 458.53055 75.025 458.53055Q73.66563 458.53055 73.00938 457.6243Q72.35313 456.71805 72.32188 454.90555L72.32188 453.46805Q72.32188 451.57742 72.9625 450.67117Q73.61875 449.7493 75.00938 449.7493Q76.38438 449.7493 77.04063 450.63992Q77.69688 451.51492 77.7125 453.35867L77.7125 454.76492ZM76.61875 453.28055Q76.61875 451.90555 76.22813 451.28055Q75.85313 450.63992 75.00938 450.63992Q74.18125 450.63992 73.79063 451.28055Q73.41563 451.90555 73.41563 453.20242L73.41563 454.9368Q73.41563 456.3118 73.80625 456.98367Q74.2125 457.63992 75.025 457.63992Q75.82188 457.63992 76.2125 457.01492Q76.60313 456.38992 76.61875 455.0618L76.61875 453.28055Z" fill-rule="nonzero"/><path fill="#1c2a3e" d="M38.665627 291.758Q38.665627 291.22675 38.290627 290.86737Q37.915627 290.49237 37.009377 290.17987Q35.759377 289.80487 35.18125 289.1955Q34.61875 288.58612 34.61875 287.633Q34.61875 286.67987 35.18125 286.0705Q35.74375 285.4455 36.728127 285.33612L36.728127 284.03925L37.5875 284.03925L37.5875 285.33612Q38.571877 285.47675 39.11875 286.16425Q39.68125 286.85175 39.68125 288.05487L38.603127 288.05487Q38.603127 287.22675 38.196877 286.74237Q37.80625 286.258 37.15 286.258Q36.446877 286.258 36.071877 286.61737Q35.7125 286.97675 35.7125 287.61737Q35.7125 288.21112 36.103127 288.5705Q36.49375 288.92987 37.384377 289.22675Q38.275 289.508 38.775 289.86737Q39.275 290.21112 39.509377 290.67987Q39.74375 291.133 39.74375 291.758Q39.74375 292.74237 39.15 293.35175Q38.55625 293.9455 37.49375 294.05487L37.49375 295.17987L36.61875 295.17987L36.61875 294.05487Q35.525 293.96112 34.9 293.28925Q34.290627 292.60175 34.290627 291.4455L35.384377 291.4455Q35.384377 292.258 35.80625 292.6955Q36.228127 293.133 37.025 293.133Q37.790627 293.133 38.228127 292.77362Q38.665627 292.39862 38.665627 291.758ZM46.946877 293.96112L41.353127 293.96112L41.353127 293.17987L44.30625 289.89862Q44.9625 289.14862 45.2125 288.6955Q45.4625 288.22675 45.4625 287.72675Q45.4625 287.05487 45.05625 286.633Q44.665627 286.1955 43.978127 286.1955Q43.18125 286.1955 42.728127 286.66425Q42.275 287.11737 42.275 287.9455L41.196877 287.9455Q41.196877 286.758 41.946877 286.03925Q42.7125 285.30487 43.978127 285.30487Q45.18125 285.30487 45.86875 285.92987Q46.55625 286.55487 46.55625 287.60175Q46.55625 288.85175 44.946877 290.60175L42.665627 293.0705L46.946877 293.0705L46.946877 293.96112ZM53.7125 290.3205Q53.7125 292.22675 53.05625 293.16425Q52.415627 294.08612 51.025 294.08612Q49.665627 294.08612 49.009377 293.17987Q48.353127 292.27362 48.321877 290.46112L48.321877 289.02362Q48.321877 287.133 48.9625 286.22675Q49.61875 285.30487 51.009377 285.30487Q52.384377 285.30487 53.040627 286.1955Q53.696877 287.0705 53.7125 288.91425L53.7125 290.3205ZM52.61875 288.83612Q52.61875 287.46112 52.228127 286.83612Q51.853127 286.1955 51.009377 286.1955Q50.18125 286.1955 49.790627 286.83612Q49.415627 287.46112 49.415627 288.758L49.415627 290.49237Q49.415627 291.86737 49.80625 292.53925Q50.2125 293.1955 51.025 293.1955Q51.821877 293.1955 52.2125 292.5705Q52.603127 291.9455 52.61875 290.61737L52.61875 288.83612ZM60.7125 290.3205Q60.7125 292.22675 60.05625 293.16425Q59.415627 294.08612 58.025 294.08612Q56.665627 294.08612 56.009377 293.17987Q55.353127 292.27362 55.321877 290.46112L55.321877 289.02362Q55.321877 287.133 55.9625 286.22675Q56.61875 285.30487 58.009377 285.30487Q59.384377 285.30487 60.040627 286.1955Q60.696877 287.0705 60.7125 288.91425L60.7125 290.3205ZM59.61875 288.83612Q59.61875 287.46112 59.228127 286.83612Q58.853127 286.1955 58.009377 286.1955Q57.18125 286.1955 56.790627 286.83612Q56.415627 287.46112 56.415627 288.758L56.415627 290.49237Q56.415627 291.86737 56.80625 292.53925Q57.2125 293.1955 58.025 293.1955Q58.821877 293.1955 59.2125 292.5705Q59.603127 291.9455 59.61875 290.61737L59.61875 288.83612ZM62.49375 293.39862Q62.49375 293.11737 62.65 292.92987Q62.821877 292.74237 63.15 292.74237Q63.49375 292.74237 63.665627 292.92987Q63.8375 293.11737 63.8375 293.39862Q63.8375 293.66425 63.665627 293.85175Q63.49375 294.02362 63.15 294.02362Q62.821877 294.02362 62.65 293.85175Q62.49375 293.66425 62.49375 293.39862ZM70.7125 290.3205Q70.7125 292.22675 70.05625 293.16425Q69.41563 294.08612 68.025 294.08612Q66.66563 294.08612 66.00938 293.17987Q65.35313 292.27362 65.32188 290.46112L65.32188 289.02362Q65.32188 287.133 65.9625 286.22675Q66.61875 285.30487 68.00938 285.30487Q69.38438 285.30487 70.04063 286.1955Q70.69688 287.0705 70.7125 288.91425L70.7125 290.3205ZM69.61875 288.83612Q69.61875 287.46112 69.22813 286.83612Q68.85313 286.1955 68.00938 286.1955Q67.18125 286.1955 66.79063 286.83612Q66.41563 287.46112 66.41563 288.758L66.41563 290.49237Q66.41563 291.86737 66.80625 292.53925Q67.2125 293.1955 68.025 293.1955Q68.82188 293.1955 69.2125 292.5705Q69.60313 291.9455 69.61875 290.61737L69.61875 288.83612ZM77.7125 290.3205Q77.7125 292.22675 77.05625 293.16425Q76.41563 294.08612 75.025 294.08612Q73.66563 294.08612 73.00938 293.17987Q72.35313 292.27362 72.32188 290.46112L72.32188 289.02362Q72.32188 287.133 72.9625 286.22675Q73.61875 285.30487 75.00938 285.30487Q76.38438 285.30487 77.04063 286.1955Q77.69688 287.0705 77.7125 288.91425L77.7125 290.3205ZM76.61875 288.83612Q76.61875 287.46112 76.22813 286.83612Q75.85313 286.1955 75.00938 286.1955Q74.18125 286.1955 73.79063 286.83612Q73.41563 287.46112 73.41563 288.758L73.41563 290.49237Q73.41563 291.86737 73.80625 292.53925Q74.2125 293.1955 75.025 293.1955Q75.82188 293.1955 76.2125 292.5705Q76.60313 291.9455 76.61875 290.61737L76.61875 288.83612Z" fill-rule="nonzero"/><path fill="#1c2a3e" d="M38.665627 127.31354Q38.665627 126.78229 38.290627 126.42291Q37.915627 126.04791 37.009377 125.73541Q35.759377 125.36041 35.18125 124.75104Q34.61875 124.14166 34.61875 123.18854Q34.61875 122.23541 35.18125 121.62604Q35.74375 121.00104 36.728127 120.89166L36.728127 119.59479L37.5875 119.59479L37.5875 120.89166Q38.571877 121.03229 39.11875 121.71979Q39.68125 122.40729 39.68125 123.61041L38.603127 123.61041Q38.603127 122.78229 38.196877 122.29791Q37.80625 121.81354 37.15 121.81354Q36.446877 121.81354 36.071877 122.17291Q35.7125 122.53229 35.7125 123.17291Q35.7125 123.76666 36.103127 124.12604Q36.49375 124.48541 37.384377 124.78229Q38.275 125.06354 38.775 125.42291Q39.275 125.76666 39.509377 126.23541Q39.74375 126.68854 39.74375 127.31354Q39.74375 128.29791 39.15 128.90729Q38.55625 129.50104 37.49375 129.61041L37.49375 130.73541L36.61875 130.73541L36.61875 129.61041Q35.525 129.51666 34.9 128.84479Q34.290627 128.15729 34.290627 127.00104L35.384377 127.00104Q35.384377 127.81354 35.80625 128.25104Q36.228127 128.68854 37.025 128.68854Q37.790627 128.68854 38.228127 128.32916Q38.665627 127.95416 38.665627 127.31354ZM42.93125 124.71979L43.74375 124.71979Q44.525 124.70416 44.9625 124.31354Q45.4 123.92291 45.4 123.25104Q45.4 121.75104 43.9 121.75104Q43.196877 121.75104 42.775 122.15729Q42.36875 122.56354 42.36875 123.21979L41.275 123.21979Q41.275 122.20416 42.009377 121.53229Q42.759377 120.86041 43.9 120.86041Q45.103127 120.86041 45.790627 121.50104Q46.478127 122.14166 46.478127 123.28229Q46.478127 123.84479 46.11875 124.36041Q45.759377 124.87604 45.134377 125.14166Q45.8375 125.36041 46.2125 125.87604Q46.603127 126.39166 46.603127 127.14166Q46.603127 128.28229 45.853127 128.96979Q45.103127 129.64166 43.9 129.64166Q42.7125 129.64166 41.946877 128.98541Q41.196877 128.32916 41.196877 127.26666L42.290627 127.26666Q42.290627 127.93854 42.728127 128.34479Q43.165627 128.75104 43.915627 128.75104Q44.696877 128.75104 45.103127 128.34479Q45.525 127.92291 45.525 127.15729Q45.525 126.42291 45.071877 126.03229Q44.61875 125.62604 43.74375 125.61041L42.93125 125.61041L42.93125 124.71979ZM53.7125 125.87604Q53.7125 127.78229 53.05625 128.71979Q52.415627 129.64166 51.025 129.64166Q49.665627 129.64166 49.009377 128.73541Q48.353127 127.82916 48.321877 126.01666L48.321877 124.57916Q48.321877 122.68854 48.9625 121.78229Q49.61875 120.86041 51.009377 120.86041Q52.384377 120.86041 53.040627 121.75104Q53.696877 122.62604 53.7125 124.46979L53.7125 125.87604ZM52.61875 124.39166Q52.61875 123.01666 52.228127 122.39166Q51.853127 121.75104 51.009377 121.75104Q50.18125 121.75104 49.790627 122.39166Q49.415627 123.01666 49.415627 124.31354L49.415627 126.04791Q49.415627 127.42291 49.80625 128.09479Q50.2125 128.75104 51.025 128.75104Q51.821877 128.75104 52.2125 128.12604Q52.603127 127.50104 52.61875 126.17291L52.61875 124.39166ZM60.7125 125.87604Q60.7125 127.78229 60.05625 128.71979Q59.415627 129.64166 58.025 129.64166Q56.665627 129.64166 56.009377 128.73541Q55.353127 127.82916 55.321877 126.01666L55.321877 124.57916Q55.321877 122.68854 55.9625 121.78229Q56.61875 120.86041 58.009377 120.86041Q59.384377 120.86041 60.040627 121.75104Q60.696877 122.62604 60.7125 124.46979L60.7125 125.87604ZM59.61875 124.39166Q59.61875 123.01666 59.228127 122.39166Q58.853127 121.75104 58.009377 121.75104Q57.18125 121.75104 56.790627 122.39166Q56.415627 123.01666 56.415627 124.31354L56.415627 126.04791Q56.415627 127.42291 56.80625 128.09479Q57.2125 128.75104 58.025 128.75104Q58.821877 128.75104 59.2125 128.12604Q59.603127 127.50104 59.61875 126.17291L59.61875 124.39166ZM62.49375 128.95416Q62.49375 128.67291 62.65 128.48541Q62.821877 128.29791 63.15 128.29791Q63.49375 128.29791 63.665627 128.48541Q63.8375 128.67291 63.8375 128.95416Q63.8375 129.21979 63.665627 129.40729Q63.49375 129.57916 63.15 129.57916Q62.821877 129.57916 62.65 129.40729Q62.49375 129.21979 62.49375 128.95416ZM70.7125 125.87604Q70.7125 127.78229 70.05625 128.71979Q69.41563 129.64166 68.025 129.64166Q66.66563 129.64166 66.00938 128.73541Q65.35313 127.82916 65.32188 126.01666L65.32188 124.57916Q65.32188 122.68854 65.9625 121.78229Q66.61875 120.86041 68.00938 120.86041Q69.38438 120.86041 70.04063 121.75104Q70.69688 122.62604 70.7125 124.46979L70.7125 125.87604ZM69.61875 124.39166Q69.61875 123.01666 69.22813 122.39166Q68.85313 121.75104 68.00938 121.75104Q67.18125 121.75104 66.79063 122.39166Q66.41563 123.01666 66.41563 124.31354L66.41563 126.04791Q66.41563 127.42291 66.80625 128.09479Q67.2125 128.75104 68.025 128.75104Q68.82188 128.75104 69.2125 128.12604Q69.60313 127.50104 69.61875 126.17291L69.61875 124.39166ZM77.7125 125.87604Q77.7125 127.78229 77.05625 128.71979Q76.41563 129.64166 75.025 129.64166Q73.66563 129.64166 73.00938 128.73541Q72.35313 127.82916 72.32188 126.01666L72.32188 124.57916Q72.32188 122.68854 72.9625 121.78229Q73.61875 120.86041 75.00938 120.86041Q76.38438 120.86041 77.04063 121.75104Q77.69688 122.62604 77.7125 124.46979L77.7125 125.87604ZM76.61875 124.39166Q76.61875 123.01666 76.22813 122.39166Q75.85313 121.75104 75.00938 121.75104Q74.18125 121.75104 73.79063 122.39166Q73.41563 123.01666 73.41563 124.31354L73.41563 126.04791Q73.41563 127.42291 73.80625 128.09479Q74.2125 128.75104 75.025 128.75104Q75.82188 128.75104 76.2125 128.12604Q76.60313 127.50104 76.61875 126.17291L76.61875 124.39166Z" fill-rule="nonzero"/><path fill="#1c2a3e" d="M201.11243 633.4906L202.29993 633.4906L202.29993 634.3656L201.11243 634.3656L201.11243 636.35L200.0343 636.35L200.0343 634.3656L196.14368 634.3656L196.14368 633.725L199.95618 627.8187L201.11243 627.8187L201.11243 633.4906ZM197.37805 633.4906L200.0343 633.4906L200.0343 629.3031L199.89368 629.5375L197.37805 633.4906ZM203.86243 637.08435L202.94055 637.08435L206.50305 627.8187L207.42493 627.8187L203.86243 637.08435ZM212.0968 636.35L211.01868 636.35L211.01868 629.1312L208.83118 629.9281L208.83118 628.9437L211.94055 627.77185L212.0968 627.77185L212.0968 636.35ZM215.86243 637.08435L214.94055 637.08435L218.50305 627.8187L219.42493 627.8187L215.86243 637.08435ZM226.12805 636.35L220.5343 636.35L220.5343 635.5687L223.48743 632.2875Q224.14368 631.5375 224.39368 631.08435Q224.64368 630.6156 224.64368 630.1156Q224.64368 629.4437 224.23743 629.02185Q223.8468 628.58435 223.1593 628.58435Q222.36243 628.58435 221.9093 629.0531Q221.45618 629.5062 221.45618 630.33435L220.37805 630.33435Q220.37805 629.14685 221.12805 628.4281Q221.89368 627.6937 223.1593 627.6937Q224.36243 627.6937 225.04993 628.3187Q225.73743 628.9437 225.73743 629.9906Q225.73743 631.2406 224.12805 632.9906L221.8468 635.45935L226.12805 635.45935L226.12805 636.35ZM232.89368 632.70935Q232.89368 634.6156 232.23743 635.5531Q231.5968 636.475 230.20618 636.475Q228.8468 636.475 228.19055 635.5687Q227.5343 634.6625 227.50305 632.85L227.50305 631.4125Q227.50305 629.52185 228.14368 628.6156Q228.79993 627.6937 230.19055 627.6937Q231.56555 627.6937 232.2218 628.58435Q232.87805 629.45935 232.89368 631.3031L232.89368 632.70935ZM231.79993 631.225Q231.79993 629.85 231.4093 629.225Q231.0343 628.58435 230.19055 628.58435Q229.36243 628.58435 228.9718 629.225Q228.5968 629.85 228.5968 631.14685L228.5968 632.8812Q228.5968 634.2562 228.98743 634.9281Q229.39368 635.58435 230.20618 635.58435Q231.00305 635.58435 231.39368 634.95935Q231.7843 634.33435 231.79993 633.0062L231.79993 631.225ZM238.0968 636.35L237.01868 636.35L237.01868 629.1312L234.83118 629.9281L234.83118 628.9437L237.94055 627.77185L238.0968 627.77185L238.0968 636.35ZM245.69055 632.6Q245.36243 633.0062 244.87805 633.2562Q244.4093 633.4906 243.8468 633.4906Q243.11243 633.4906 242.56555 633.1312Q242.01868 632.77185 241.7218 632.1156Q241.42493 631.4437 241.42493 630.64685Q241.42493 629.8031 241.73743 629.1156Q242.06555 628.4281 242.6593 628.0687Q243.26868 627.6937 244.06555 627.6937Q245.33118 627.6937 246.04993 628.64685Q246.7843 629.6 246.7843 631.225L246.7843 631.5375Q246.7843 634.0375 245.79993 635.1781Q244.81555 636.3187 242.83118 636.35L242.61243 636.35L242.61243 635.4437L242.8468 635.4437Q244.19055 635.4125 244.9093 634.7406Q245.62805 634.0687 245.69055 632.6ZM244.01868 632.6Q244.56555 632.6 245.01868 632.27185Q245.48743 631.9281 245.70618 631.4437L245.70618 631.0062Q245.70618 629.9437 245.23743 629.27185Q244.76868 628.6 244.06555 628.6Q243.3468 628.6 242.9093 629.14685Q242.48743 629.6937 242.48743 630.6Q242.48743 631.475 242.89368 632.0375Q243.31555 632.6 244.01868 632.6Z" fill-rule="nonzero"/><path fill="#1c2a3e" d="M410.10803 628.4281L406.57678 636.35L405.43616 636.35L408.95178 628.70935L404.3424 628.70935L404.3424 627.8187L410.10803 627.8187L410.10803 628.4281ZM411.92053 637.08435L410.99866 637.08435L414.56116 627.8187L415.48303 627.8187L411.92053 637.08435ZM420.1549 636.35L419.07678 636.35L419.07678 629.1312L416.88928 629.9281L416.88928 628.9437L419.99866 627.77185L420.1549 627.77185L420.1549 636.35ZM423.92053 637.08435L422.99866 637.08435L426.56116 627.8187L427.48303 627.8187L423.92053 637.08435ZM434.18616 636.35L428.5924 636.35L428.5924 635.5687L431.54553 632.2875Q432.20178 631.5375 432.45178 631.08435Q432.70178 630.6156 432.70178 630.1156Q432.70178 629.4437 432.29553 629.02185Q431.9049 628.58435 431.2174 628.58435Q430.42053 628.58435 429.9674 629.0531Q429.51428 629.5062 429.51428 630.33435L428.43616 630.33435Q428.43616 629.14685 429.18616 628.4281Q429.95178 627.6937 431.2174 627.6937Q432.42053 627.6937 433.10803 628.3187Q433.79553 628.9437 433.79553 629.9906Q433.79553 631.2406 432.18616 632.9906L429.9049 635.45935L434.18616 635.45935L434.18616 636.35ZM440.95178 632.70935Q440.95178 634.6156 440.29553 635.5531Q439.6549 636.475 438.26428 636.475Q436.9049 636.475 436.24866 635.5687Q435.5924 634.6625 435.56116 632.85L435.56116 631.4125Q435.56116 629.52185 436.20178 628.6156Q436.85803 627.6937 438.24866 627.6937Q439.62366 627.6937 440.2799 628.58435Q440.93616 629.45935 440.95178 631.3031L440.95178 632.70935ZM439.85803 631.225Q439.85803 629.85 439.4674 629.225Q439.0924 628.58435 438.24866 628.58435Q437.42053 628.58435 437.0299 629.225Q436.6549 629.85 436.6549 631.14685L436.6549 632.8812Q436.6549 634.2562 437.04553 634.9281Q437.45178 635.58435 438.26428 635.58435Q439.06116 635.58435 439.45178 634.95935Q439.8424 634.33435 439.85803 633.0062L439.85803 631.225ZM446.1549 636.35L445.07678 636.35L445.07678 629.1312L442.88928 629.9281L442.88928 628.9437L445.99866 627.77185L446.1549 627.77185L446.1549 636.35ZM453.74866 632.6Q453.42053 633.0062 452.93616 633.2562Q452.4674 633.4906 451.9049 633.4906Q451.17053 633.4906 450.62366 633.1312Q450.07678 632.77185 449.7799 632.1156Q449.48303 631.4437 449.48303 630.64685Q449.48303 629.8031 449.79553 629.1156Q450.12366 628.4281 450.7174 628.0687Q451.32678 627.6937 452.12366 627.6937Q453.38928 627.6937 454.10803 628.64685Q454.8424 629.6 454.8424 631.225L454.8424 631.5375Q454.8424 634.0375 453.85803 635.1781Q452.87366 636.3187 450.88928 636.35L450.67053 636.35L450.67053 635.4437L450.9049 635.4437Q452.24866 635.4125 452.9674 634.7406Q453.68616 634.0687 453.74866 632.6ZM452.07678 632.6Q452.62366 632.6 453.07678 632.27185Q453.54553 631.9281 453.76428 631.4437L453.76428 631.0062Q453.76428 629.9437 453.29553 629.27185Q452.82678 628.6 452.12366 628.6Q451.4049 628.6 450.9674 629.14685Q450.54553 629.6937 450.54553 630.6Q450.54553 631.475 450.95178 632.0375Q451.37366 632.6 452.07678 632.6Z" fill-rule="nonzero"/><path fill="#1c2a3e" d="M614.9994 636.35L613.92126 636.35L613.92126 629.1312L611.73376 629.9281L611.73376 628.9437L614.84314 627.77185L614.9994 627.77185L614.9994 636.35ZM623.79626 632.70935Q623.79626 634.6156 623.14 635.5531Q622.4994 636.475 621.10876 636.475Q619.7494 636.475 619.09314 635.5687Q618.4369 634.6625 618.40564 632.85L618.40564 631.4125Q618.40564 629.52185 619.04626 628.6156Q619.7025 627.6937 621.09314 627.6937Q622.46814 627.6937 623.1244 628.58435Q623.78064 629.45935 623.79626 631.3031L623.79626 632.70935ZM622.7025 631.225Q622.7025 629.85 622.3119 629.225Q621.9369 628.58435 621.09314 628.58435Q620.265 628.58435 619.8744 629.225Q619.4994 629.85 619.4994 631.14685L619.4994 632.8812Q619.4994 634.2562 619.89 634.9281Q620.29626 635.58435 621.10876 635.58435Q621.90564 635.58435 622.29626 634.95935Q622.6869 634.33435 622.7025 633.0062L622.7025 631.225ZM625.765 637.08435L624.84314 637.08435L628.40564 627.8187L629.3275 627.8187L625.765 637.08435ZM633.9994 636.35L632.92126 636.35L632.92126 629.1312L630.73376 629.9281L630.73376 628.9437L633.84314 627.77185L633.9994 627.77185L633.9994 636.35ZM637.765 637.08435L636.84314 637.08435L640.40564 627.8187L641.3275 627.8187L637.765 637.08435ZM648.03064 636.35L642.4369 636.35L642.4369 635.5687L645.39 632.2875Q646.04626 631.5375 646.29626 631.08435Q646.54626 630.6156 646.54626 630.1156Q646.54626 629.4437 646.14 629.02185Q645.7494 628.58435 645.0619 628.58435Q644.265 628.58435 643.8119 629.0531Q643.35876 629.5062 643.35876 630.33435L642.28064 630.33435Q642.28064 629.14685 643.03064 628.4281Q643.79626 627.6937 645.0619 627.6937Q646.265 627.6937 646.9525 628.3187Q647.64 628.9437 647.64 629.9906Q647.64 631.2406 646.03064 632.9906L643.7494 635.45935L648.03064 635.45935L648.03064 636.35ZM654.79626 632.70935Q654.79626 634.6156 654.14 635.5531Q653.4994 636.475 652.10876 636.475Q650.7494 636.475 650.09314 635.5687Q649.4369 634.6625 649.40564 632.85L649.40564 631.4125Q649.40564 629.52185 650.04626 628.6156Q650.7025 627.6937 652.09314 627.6937Q653.46814 627.6937 654.1244 628.58435Q654.78064 629.45935 654.79626 631.3031L654.79626 632.70935ZM653.7025 631.225Q653.7025 629.85 653.3119 629.225Q652.9369 628.58435 652.09314 628.58435Q651.265 628.58435 650.8744 629.225Q650.4994 629.85 650.4994 631.14685L650.4994 632.8812Q650.4994 634.2562 650.89 634.9281Q651.29626 635.58435 652.10876 635.58435Q652.90564 635.58435 653.29626 634.95935Q653.6869 634.33435 653.7025 633.0062L653.7025 631.225ZM659.9994 636.35L658.92126 636.35L658.92126 629.1312L656.73376 629.9281L656.73376 628.9437L659.84314 627.77185L659.9994 627.77185L659.9994 636.35ZM667.59314 632.6Q667.265 633.0062 666.78064 633.2562Q666.3119 633.4906 665.7494 633.4906Q665.015 633.4906 664.46814 633.1312Q663.92126 632.77185 663.6244 632.1156Q663.3275 631.4437 663.3275 630.64685Q663.3275 629.8031 663.64 629.1156Q663.96814 628.4281 664.5619 628.0687Q665.17126 627.6937 665.96814 627.6937Q667.23376 627.6937 667.9525 628.64685Q668.6869 629.6 668.6869 631.225L668.6869 631.5375Q668.6869 634.0375 667.7025 635.1781Q666.71814 636.3187 664.73376 636.35L664.515 636.35L664.515 635.4437L664.7494 635.4437Q666.09314 635.4125 666.8119 634.7406Q667.53064 634.0687 667.59314 632.6ZM665.92126 632.6Q666.46814 632.6 666.92126 632.27185Q667.39 631.9281 667.60876 631.4437L667.60876 631.0062Q667.60876 629.9437 667.14 629.27185Q666.67126 628.6 665.96814 628.6Q665.2494 628.6 664.8119 629.14685Q664.39 629.6937 664.39 630.6Q664.39 631.475 664.79626 632.0375Q665.21814 632.6 665.92126 632.6Z" fill-rule="nonzero"/><path fill="#1c2a3e" d="M828.8439 636.35L827.76575 636.35L827.76575 629.1312L825.57825 629.9281L825.57825 628.9437L828.6876 627.77185L828.8439 627.77185L828.8439 636.35ZM832.6095 637.08435L831.6876 637.08435L835.2501 627.8187L836.172 627.8187L832.6095 637.08435ZM840.8439 636.35L839.76575 636.35L839.76575 629.1312L837.57825 629.9281L837.57825 628.9437L840.6876 627.77185L840.8439 627.77185L840.8439 636.35ZM844.6095 637.08435L843.6876 637.08435L847.2501 627.8187L848.172 627.8187L844.6095 637.08435ZM854.8751 636.35L849.2814 636.35L849.2814 635.5687L852.2345 632.2875Q852.89075 631.5375 853.14075 631.08435Q853.39075 630.6156 853.39075 630.1156Q853.39075 629.4437 852.9845 629.02185Q852.5939 628.58435 851.9064 628.58435Q851.1095 628.58435 850.6564 629.0531Q850.20325 629.5062 850.20325 630.33435L849.1251 630.33435Q849.1251 629.14685 849.8751 628.4281Q850.64075 627.6937 851.9064 627.6937Q853.1095 627.6937 853.797 628.3187Q854.4845 628.9437 854.4845 629.9906Q854.4845 631.2406 852.8751 632.9906L850.5939 635.45935L854.8751 635.45935L854.8751 636.35ZM861.64075 632.70935Q861.64075 634.6156 860.9845 635.5531Q860.3439 636.475 858.95325 636.475Q857.5939 636.475 856.9376 635.5687Q856.2814 634.6625 856.2501 632.85L856.2501 631.4125Q856.2501 629.52185 856.89075 628.6156Q857.547 627.6937 858.9376 627.6937Q860.3126 627.6937 860.9689 628.58435Q861.6251 629.45935 861.64075 631.3031L861.64075 632.70935ZM860.547 631.225Q860.547 629.85 860.1564 629.225Q859.7814 628.58435 858.9376 628.58435Q858.1095 628.58435 857.7189 629.225Q857.3439 629.85 857.3439 631.14685L857.3439 632.8812Q857.3439 634.2562 857.7345 634.9281Q858.14075 635.58435 858.95325 635.58435Q859.7501 635.58435 860.14075 634.95935Q860.5314 634.33435 860.547 633.0062L860.547 631.225ZM868.8751 636.35L863.2814 636.35L863.2814 635.5687L866.2345 632.2875Q866.89075 631.5375 867.14075 631.08435Q867.39075 630.6156 867.39075 630.1156Q867.39075 629.4437 866.9845 629.02185Q866.5939 628.58435 865.9064 628.58435Q865.1095 628.58435 864.6564 629.0531Q864.20325 629.5062 864.20325 630.33435L863.1251 630.33435Q863.1251 629.14685 863.8751 628.4281Q864.64075 627.6937 865.9064 627.6937Q867.1095 627.6937 867.797 628.3187Q868.4845 628.9437 868.4845 629.9906Q868.4845 631.2406 866.8751 632.9906L864.5939 635.45935L868.8751 635.45935L868.8751 636.35ZM875.64075 632.70935Q875.64075 634.6156 874.9845 635.5531Q874.3439 636.475 872.95325 636.475Q871.5939 636.475 870.9376 635.5687Q870.2814 634.6625 870.2501 632.85L870.2501 631.4125Q870.2501 629.52185 870.89075 628.6156Q871.547 627.6937 872.9376 627.6937Q874.3126 627.6937 874.9689 628.58435Q875.6251 629.45935 875.64075 631.3031L875.64075 632.70935ZM874.547 631.225Q874.547 629.85 874.1564 629.225Q873.7814 628.58435 872.9376 628.58435Q872.1095 628.58435 871.7189 629.225Q871.3439 629.85 871.3439 631.14685L871.3439 632.8812Q871.3439 634.2562 871.7345 634.9281Q872.14075 635.58435 872.95325 635.58435Q873.7501 635.58435 874.14075 634.95935Q874.5314 634.33435 874.547 633.0062L874.547 631.225Z" fill-rule="nonzero"/><path stroke="#4285f4" stroke-width="4.0" stroke-linecap="butt" d="M467.0 87.583336L479.0 87.583336" fill-rule="nonzero"/><path fill="#333f51" d="M489.10938 88.739586L489.10938 92.083336L487.98438 92.083336L487.98438 83.552086L491.14062 83.552086Q492.53125 83.552086 493.32812 84.270836Q494.125 84.97396 494.125 86.16146Q494.125 87.395836 493.34375 88.06771Q492.57812 88.739586 491.125 88.739586L489.10938 88.739586ZM489.10938 87.81771L491.14062 87.81771Q492.04688 87.81771 492.51562 87.395836Q493.0 86.97396 493.0 86.177086Q493.0 85.41146 492.51562 84.958336Q492.04688 84.489586 491.20312 84.47396L489.10938 84.47396L489.10938 87.81771ZM498.89062 86.708336Q498.64062 86.677086 498.35938 86.677086Q497.28125 86.677086 496.90625 87.583336L496.90625 92.083336L495.82812 92.083336L495.82812 85.739586L496.875 85.739586L496.89062 86.47396Q497.42188 85.63021 498.40625 85.63021Q498.71875 85.63021 498.89062 85.708336L498.89062 86.708336ZM502.45312 92.208336Q501.15625 92.208336 500.34375 91.364586Q499.54688 90.50521 499.54688 89.083336L499.54688 88.895836Q499.54688 87.94271 499.90625 87.208336Q500.26562 86.458336 500.90625 86.052086Q501.5625 85.63021 502.3125 85.63021Q503.54688 85.63021 504.23438 86.44271Q504.92188 87.25521 504.92188 88.770836L504.92188 89.22396L500.625 89.22396Q500.65625 90.16146 501.17188 90.739586Q501.70312 91.31771 502.51562 91.31771Q503.07812 91.31771 503.46875 91.083336Q503.875 90.84896 504.1875 90.458336L504.84375 90.97396Q504.04688 92.208336 502.45312 92.208336ZM502.3125 86.520836Q501.65625 86.520836 501.20312 87.00521Q500.76562 87.47396 500.67188 88.333336L503.84375 88.333336L503.84375 88.25521Q503.79688 87.427086 503.39062 86.97396Q503.0 86.520836 502.3125 86.520836ZM506.84375 85.739586L506.875 86.44271Q507.5625 85.63021 508.75 85.63021Q510.07812 85.63021 510.5625 86.645836Q510.875 86.19271 511.375 85.91146Q511.89062 85.63021 512.5781 85.63021Q514.6719 85.63021 514.7031 87.833336L514.7031 92.083336L513.625 92.083336L513.625 87.895836Q513.625 87.22396 513.3125 86.895836Q513.0 86.552086 512.2656 86.552086Q511.65625 86.552086 511.25 86.91146Q510.85938 87.270836 510.79688 87.88021L510.79688 92.083336L509.71875 92.083336L509.71875 87.927086Q509.71875 86.552086 508.35938 86.552086Q507.29688 86.552086 506.90625 87.458336L506.90625 92.083336L505.8125 92.083336L505.8125 85.739586L506.84375 85.739586ZM518.0 92.083336L516.9219 92.083336L516.9219 85.739586L518.0 85.739586L518.0 92.083336ZM516.8281 84.06771Q516.8281 83.802086 516.9844 83.614586Q517.15625 83.427086 517.46875 83.427086Q517.78125 83.427086 517.9375 83.614586Q518.1094 83.802086 518.1094 84.06771Q518.1094 84.31771 517.9375 84.50521Q517.78125 84.677086 517.46875 84.677086Q517.15625 84.677086 516.9844 84.50521Q516.8281 84.31771 516.8281 84.06771ZM523.7344 91.458336Q523.1094 92.208336 521.875 92.208336Q520.8594 92.208336 520.3281 91.614586Q519.7969 91.020836 519.7969 89.864586L519.7969 85.739586L520.875 85.739586L520.875 89.833336Q520.875 91.28646 522.0469 91.28646Q523.2969 91.28646 523.7031 90.34896L523.7031 85.739586L524.7969 85.739586L524.7969 92.083336L523.7656 92.083336L523.7344 91.458336ZM527.84375 85.739586L527.875 86.44271Q528.5625 85.63021 529.75 85.63021Q531.0781 85.63021 531.5625 86.645836Q531.875 86.19271 532.375 85.91146Q532.8906 85.63021 533.5781 85.63021Q535.6719 85.63021 535.7031 87.833336L535.7031 92.083336L534.625 92.083336L534.625 87.895836Q534.625 87.22396 534.3125 86.895836Q534.0 86.552086 533.2656 86.552086Q532.65625 86.552086 532.25 86.91146Q531.8594 87.270836 531.7969 87.88021L531.7969 92.083336L530.71875 92.083336L530.71875 87.927086Q530.71875 86.552086 529.3594 86.552086Q528.2969 86.552086 527.90625 87.458336L527.90625 92.083336L526.8125 92.083336L526.8125 85.739586L527.84375 85.739586Z" fill-rule="nonzero"/><path stroke="#ea4335" stroke-width="4.0" stroke-linecap="butt" d="M553.0 87.583336L565.0 87.583336" fill-rule="nonzero"/><path fill="#333f51" d="M576.5 88.28646Q575.0625 87.864586 574.3906 87.25521Q573.7344 86.645836 573.7344 85.75521Q573.7344 84.75521 574.53125 84.09896Q575.34375 83.427086 576.6406 83.427086Q577.5156 83.427086 578.2031 83.770836Q578.8906 84.114586 579.2656 84.708336Q579.65625 85.302086 579.65625 86.020836L578.5156 86.020836Q578.5156 85.239586 578.0156 84.802086Q577.53125 84.364586 576.6406 84.364586Q575.8125 84.364586 575.34375 84.739586Q574.875 85.09896 574.875 85.739586Q574.875 86.270836 575.3125 86.63021Q575.7656 86.989586 576.8281 87.28646Q577.8906 87.583336 578.4844 87.94271Q579.09375 88.302086 579.375 88.78646Q579.6719 89.270836 579.6719 89.91146Q579.6719 90.958336 578.8594 91.583336Q578.0469 92.208336 576.7031 92.208336Q575.8125 92.208336 575.0469 91.864586Q574.2969 91.520836 573.875 90.94271Q573.46875 90.34896 573.46875 89.614586L574.59375 89.614586Q574.59375 90.38021 575.1719 90.833336Q575.75 91.28646 576.7031 91.28646Q577.59375 91.28646 578.0625 90.927086Q578.53125 90.552086 578.53125 89.927086Q578.53125 89.302086 578.09375 88.958336Q577.65625 88.614586 576.5 88.28646ZM582.2969 84.208336L582.2969 85.739586L583.46875 85.739586L583.46875 86.583336L582.2969 86.583336L582.2969 90.50521Q582.2969 90.895836 582.4531 91.083336Q582.6094 91.270836 582.9844 91.270836Q583.1719 91.270836 583.5 91.208336L583.5 92.083336Q583.0781 92.208336 582.6719 92.208336Q581.9531 92.208336 581.5781 91.770836Q581.2031 91.31771 581.2031 90.50521L581.2031 86.583336L580.0469 86.583336L580.0469 85.739586L581.2031 85.739586L581.2031 84.208336L582.2969 84.208336ZM588.7344 92.083336Q588.6406 91.895836 588.5781 91.41146Q587.8281 92.208336 586.78125 92.208336Q585.84375 92.208336 585.2344 91.677086Q584.6406 91.145836 584.6406 90.31771Q584.6406 89.333336 585.3906 88.78646Q586.1406 88.239586 587.5156 88.239586L588.5625 88.239586L588.5625 87.739586Q588.5625 87.177086 588.21875 86.84896Q587.8906 86.50521 587.21875 86.50521Q586.6406 86.50521 586.25 86.802086Q585.8594 87.083336 585.8594 87.50521L584.7656 87.50521Q584.7656 87.020836 585.09375 86.583336Q585.4375 86.145836 586.0156 85.895836Q586.59375 85.63021 587.28125 85.63021Q588.3906 85.63021 589.0 86.177086Q589.625 86.72396 589.65625 87.677086L589.65625 90.59896Q589.65625 91.47396 589.875 91.989586L589.875 92.083336L588.7344 92.083336ZM586.9375 91.25521Q587.4531 91.25521 587.90625 90.989586Q588.3594 90.72396 588.5625 90.302086L588.5625 89.00521L587.71875 89.00521Q585.71875 89.00521 585.71875 90.177086Q585.71875 90.677086 586.0625 90.97396Q586.40625 91.25521 586.9375 91.25521ZM592.84375 85.739586L592.875 86.53646Q593.6094 85.63021 594.78125 85.63021Q596.7969 85.63021 596.8125 87.895836L596.8125 92.083336L595.71875 92.083336L595.71875 87.88021Q595.71875 87.208336 595.40625 86.88021Q595.1094 86.552086 594.4531 86.552086Q593.9219 86.552086 593.5156 86.833336Q593.125 87.114586 592.90625 87.56771L592.90625 92.083336L591.8281 92.083336L591.8281 85.739586L592.84375 85.739586ZM598.5625 88.864586Q598.5625 87.395836 599.25 86.520836Q599.9375 85.63021 601.0625 85.63021Q602.1719 85.63021 602.8281 86.38021L602.8281 83.083336L603.90625 83.083336L603.90625 92.083336L602.90625 92.083336L602.8594 91.395836Q602.2031 92.208336 601.0469 92.208336Q599.9531 92.208336 599.25 91.302086Q598.5625 90.395836 598.5625 88.94271L598.5625 88.864586ZM599.6406 88.989586Q599.6406 90.06771 600.0781 90.677086Q600.53125 91.28646 601.3125 91.28646Q602.34375 91.28646 602.8281 90.34896L602.8281 87.44271Q602.34375 86.552086 601.3281 86.552086Q600.53125 86.552086 600.0781 87.16146Q599.6406 87.770836 599.6406 88.989586ZM609.7344 92.083336Q609.6406 91.895836 609.5781 91.41146Q608.8281 92.208336 607.78125 92.208336Q606.84375 92.208336 606.2344 91.677086Q605.6406 91.145836 605.6406 90.31771Q605.6406 89.333336 606.3906 88.78646Q607.1406 88.239586 608.5156 88.239586L609.5625 88.239586L609.5625 87.739586Q609.5625 87.177086 609.21875 86.84896Q608.8906 86.50521 608.21875 86.50521Q607.6406 86.50521 607.25 86.802086Q606.8594 87.083336 606.8594 87.50521L605.7656 87.50521Q605.7656 87.020836 606.09375 86.583336Q606.4375 86.145836 607.0156 85.895836Q607.59375 85.63021 608.28125 85.63021Q609.3906 85.63021 610.0 86.177086Q610.625 86.72396 610.65625 87.677086L610.65625 90.59896Q610.65625 91.47396 610.875 91.989586L610.875 92.083336L609.7344 92.083336ZM607.9375 91.25521Q608.4531 91.25521 608.90625 90.989586Q609.3594 90.72396 609.5625 90.302086L609.5625 89.00521L608.71875 89.00521Q606.71875 89.00521 606.71875 90.177086Q606.71875 90.677086 607.0625 90.97396Q607.40625 91.25521 607.9375 91.25521ZM615.8906 86.708336Q615.6406 86.677086 615.3594 86.677086Q614.28125 86.677086 613.90625 87.583336L613.90625 92.083336L612.8281 92.083336L612.8281 85.739586L613.875 85.739586L613.8906 86.47396Q614.4219 85.63021 615.40625 85.63021Q615.71875 85.63021 615.8906 85.708336L615.8906 86.708336ZM616.5625 88.864586Q616.5625 87.395836 617.25 86.520836Q617.9375 85.63021 619.0625 85.63021Q620.1719 85.63021 620.8281 86.38021L620.8281 83.083336L621.90625 83.083336L621.90625 92.083336L620.90625 92.083336L620.8594 91.395836Q620.2031 92.208336 619.0469 92.208336Q617.9531 92.208336 617.25 91.302086Q616.5625 90.395836 616.5625 88.94271L616.5625 88.864586ZM617.6406 88.989586Q617.6406 90.06771 618.0781 90.677086Q618.53125 91.28646 619.3125 91.28646Q620.34375 91.28646 620.8281 90.34896L620.8281 87.44271Q620.34375 86.552086 619.3281 86.552086Q618.53125 86.552086 618.0781 87.16146Q617.6406 87.770836 617.6406 88.989586Z" fill-rule="nonzero"/><path fill="#848c97" d="M435.57812 38.43125L440.21875 50.025L444.875 38.43125L447.29688 38.43125L447.29688 52.65L445.42188 52.65L445.42188 47.11875L445.60938 41.134377L440.9375 52.65L439.5 52.65L434.84375 41.165627L435.03125 47.11875L435.03125 52.65L433.15625 52.65L433.15625 38.43125L435.57812 38.43125ZM455.35938 46.9L452.03125 46.9L452.03125 52.65L450.14062 52.65L450.14062 38.43125L454.84375 38.43125Q457.25 38.43125 458.54688 39.525Q459.84375 40.61875 459.84375 42.7125Q459.84375 44.040627 459.125 45.025Q458.40625 46.009377 457.125 46.49375L460.46875 52.525L460.46875 52.65L458.45312 52.65L455.35938 46.9ZM452.03125 45.36875L454.90625 45.36875Q456.29688 45.36875 457.125 44.65Q457.95312 43.915627 457.95312 42.7125Q457.95312 41.384377 457.15625 40.68125Q456.375 39.978127 454.89062 39.978127L452.03125 39.978127L452.03125 45.36875ZM467.35938 46.9L464.03125 46.9L464.03125 52.65L462.14062 52.65L462.14062 38.43125L466.84375 38.43125Q469.25 38.43125 470.54688 39.525Q471.84375 40.61875 471.84375 42.7125Q471.84375 44.040627 471.125 45.025Q470.40625 46.009377 469.125 46.49375L472.46875 52.525L472.46875 52.65L470.45312 52.65L467.35938 46.9ZM464.03125 45.36875L466.90625 45.36875Q468.29688 45.36875 469.125 44.65Q469.95312 43.915627 469.95312 42.7125Q469.95312 41.384377 469.15625 40.68125Q468.375 39.978127 466.89062 39.978127L464.03125 39.978127L464.03125 45.36875ZM487.8125 47.478127Q487.8125 49.9 486.70312 51.384377Q485.59375 52.853127 483.71875 52.853127Q481.70312 52.853127 480.60938 51.43125L480.53125 52.65L478.875 52.65L478.875 37.65L480.67188 37.65L480.67188 43.24375Q481.76562 41.884377 483.6875 41.884377Q485.60938 41.884377 486.70312 43.3375Q487.8125 44.790627 487.8125 47.321877L487.8125 47.478127ZM486.0 47.275Q486.0 45.43125 485.28125 44.43125Q484.57812 43.415627 483.25 43.415627Q481.45312 43.415627 480.67188 45.0875L480.67188 49.65Q481.5 51.30625 483.26562 51.30625Q484.5625 51.30625 485.28125 50.30625Q486.0 49.30625 486.0 47.275ZM493.32812 50.009377L495.78125 42.0875L497.71875 42.0875L493.46875 54.275Q492.48438 56.915627 490.34375 56.915627L490.0 56.884377L489.32812 56.759377L489.32812 55.290627L489.8125 55.3375Q490.73438 55.3375 491.23438 54.9625Q491.75 54.5875 492.07812 53.603127L492.48438 52.525L488.71875 42.0875L490.6875 42.0875L493.32812 50.009377ZM508.34375 46.30625Q505.92188 45.61875 504.82812 44.61875Q503.73438 43.603127 503.73438 42.11875Q503.73438 40.43125 505.07812 39.3375Q506.42188 38.228127 508.5625 38.228127Q510.03125 38.228127 511.17188 38.80625Q512.3281 39.36875 512.9531 40.36875Q513.5781 41.353127 513.5781 42.540627L511.70312 42.540627Q511.70312 41.259377 510.875 40.525Q510.0625 39.775 508.5625 39.775Q507.17188 39.775 506.39062 40.384377Q505.625 40.99375 505.625 42.0875Q505.625 42.946877 506.35938 43.55625Q507.09375 44.15 508.85938 44.65Q510.64062 45.15 511.64062 45.759377Q512.6406 46.353127 513.125 47.15Q513.6094 47.946877 513.6094 49.040627Q513.6094 50.759377 512.2656 51.80625Q510.92188 52.853127 508.65625 52.853127Q507.20312 52.853127 505.92188 52.290627Q504.65625 51.728127 503.96875 50.759377Q503.28125 49.775 503.28125 48.525L505.17188 48.525Q505.17188 49.821877 506.125 50.571877Q507.07812 51.30625 508.65625 51.30625Q510.14062 51.30625 510.9375 50.7125Q511.73438 50.103127 511.73438 49.05625Q511.73438 48.009377 511.0 47.446877Q510.26562 46.86875 508.34375 46.30625ZM522.3906 51.603127Q521.34375 52.853127 519.2969 52.853127Q517.6094 52.853127 516.71875 51.86875Q515.84375 50.884377 515.8281 48.9625L515.8281 42.0875L517.6406 42.0875L517.6406 48.915627Q517.6406 51.30625 519.59375 51.30625Q521.65625 51.30625 522.34375 49.775L522.34375 42.0875L524.15625 42.0875L524.15625 52.65L522.4375 52.65L522.3906 51.603127ZM535.8125 47.478127Q535.8125 49.9 534.7031 51.384377Q533.59375 52.853127 531.71875 52.853127Q529.7031 52.853127 528.6094 51.43125L528.53125 52.65L526.875 52.65L526.875 37.65L528.6719 37.65L528.6719 43.24375Q529.7656 41.884377 531.6875 41.884377Q533.6094 41.884377 534.7031 43.3375Q535.8125 44.790627 535.8125 47.321877L535.8125 47.478127ZM534.0 47.275Q534.0 45.43125 533.28125 44.43125Q532.5781 43.415627 531.25 43.415627Q529.4531 43.415627 528.6719 45.0875L528.6719 49.65Q529.5 51.30625 531.2656 51.30625Q532.5625 51.30625 533.28125 50.30625Q534.0 49.30625 534.0 47.275ZM544.0156 49.853127Q544.0156 49.11875 543.46875 48.7125Q542.9219 48.30625 541.5469 48.009377Q540.1719 47.7125 539.3594 47.30625Q538.5625 46.9 538.1719 46.3375Q537.7969 45.759377 537.7969 44.978127Q537.7969 43.68125 538.8906 42.790627Q539.9844 41.884377 541.7031 41.884377Q543.5 41.884377 544.6094 42.821877Q545.7344 43.74375 545.7344 45.18125L543.90625 45.18125Q543.90625 44.446877 543.28125 43.915627Q542.65625 43.36875 541.7031 43.36875Q540.7031 43.36875 540.1406 43.80625Q539.59375 44.228127 539.59375 44.93125Q539.59375 45.571877 540.1094 45.915627Q540.625 46.24375 541.9844 46.55625Q543.34375 46.853127 544.1719 47.275Q545.0156 47.68125 545.4219 48.275Q545.8281 48.86875 545.8281 49.7125Q545.8281 51.134377 544.6875 51.99375Q543.5625 52.853127 541.75 52.853127Q540.4844 52.853127 539.5 52.4Q538.53125 51.946877 537.96875 51.15Q537.4219 50.3375 537.4219 49.4L539.2344 49.4Q539.28125 50.30625 539.9531 50.8375Q540.6406 51.36875 541.75 51.36875Q542.78125 51.36875 543.3906 50.9625Q544.0156 50.540627 544.0156 49.853127ZM552.1094 51.36875Q553.0781 51.36875 553.7969 50.790627Q554.5156 50.196877 554.59375 49.321877L556.3125 49.321877Q556.25 50.228127 555.6719 51.05625Q555.1094 51.86875 554.1406 52.36875Q553.1875 52.853127 552.1094 52.853127Q549.9531 52.853127 548.6719 51.415627Q547.40625 49.9625 547.40625 47.4625L547.40625 47.165627Q547.40625 45.61875 547.96875 44.415627Q548.53125 43.2125 549.59375 42.55625Q550.65625 41.884377 552.09375 41.884377Q553.875 41.884377 555.0469 42.946877Q556.2344 44.009377 556.3125 45.7125L554.59375 45.7125Q554.5156 44.696877 553.8125 44.040627Q553.125 43.36875 552.09375 43.36875Q550.71875 43.36875 549.9531 44.36875Q549.2031 45.353127 549.2031 47.228127L549.2031 47.571877Q549.2031 49.4 549.9531 50.384377Q550.7031 51.36875 552.1094 51.36875ZM562.96875 43.696877Q562.5625 43.634377 562.09375 43.634377Q560.3125 43.634377 559.6719 45.15L559.6719 52.65L557.875 52.65L557.875 42.0875L559.625 42.0875L559.65625 43.30625Q560.5469 41.884377 562.1719 41.884377Q562.7031 41.884377 562.96875 42.025L562.96875 43.696877ZM566.8281 52.65L565.03125 52.65L565.03125 42.0875L566.8281 42.0875L566.8281 52.65ZM564.875 39.275Q564.875 38.8375 565.1406 38.540627Q565.4219 38.228127 565.9375 38.228127Q566.46875 38.228127 566.7344 38.540627Q567.0156 38.8375 567.0156 39.275Q567.0156 39.7125 566.7344 40.009377Q566.46875 40.30625 565.9375 40.30625Q565.4219 40.30625 565.1406 40.009377Q564.875 39.7125 564.875 39.275ZM578.7969 47.478127Q578.7969 49.9 577.6875 51.384377Q576.59375 52.853127 574.7031 52.853127Q572.78125 52.853127 571.6719 51.61875L571.6719 56.7125L569.875 56.7125L569.875 42.0875L571.5156 42.0875L571.6094 43.259377Q572.7031 41.884377 574.6719 41.884377Q576.5781 41.884377 577.6875 43.321877Q578.7969 44.759377 578.7969 47.321877L578.7969 47.478127ZM576.9844 47.275Q576.9844 45.49375 576.21875 44.4625Q575.46875 43.415627 574.1406 43.415627Q572.5 43.415627 571.6719 44.86875L571.6719 49.93125Q572.4844 51.36875 574.15625 51.36875Q575.4531 51.36875 576.21875 50.3375Q576.9844 49.30625 576.9844 47.275ZM583.3125 39.525L583.3125 42.0875L585.2969 42.0875L585.2969 43.478127L583.3125 43.478127L583.3125 50.025Q583.3125 50.665627 583.5781 50.99375Q583.84375 51.30625 584.4844 51.30625Q584.7969 51.30625 585.34375 51.18125L585.34375 52.65Q584.625 52.853127 583.9531 52.853127Q582.75 52.853127 582.125 52.11875Q581.5156 51.384377 581.5156 50.025L581.5156 43.478127L579.59375 43.478127L579.59375 42.0875L581.5156 42.0875L581.5156 39.525L583.3125 39.525ZM589.8281 52.65L588.03125 52.65L588.03125 42.0875L589.8281 42.0875L589.8281 52.65ZM587.875 39.275Q587.875 38.8375 588.1406 38.540627Q588.4219 38.228127 588.9375 38.228127Q589.46875 38.228127 589.7344 38.540627Q590.0156 38.8375 590.0156 39.275Q590.0156 39.7125 589.7344 40.009377Q589.46875 40.30625 588.9375 40.30625Q588.4219 40.30625 588.1406 40.009377Q587.875 39.7125 587.875 39.275ZM592.3906 47.275Q592.3906 45.7125 593.0 44.478127Q593.6094 43.228127 594.6875 42.55625Q595.78125 41.884377 597.1875 41.884377Q599.34375 41.884377 600.6719 43.384377Q602.0156 44.86875 602.0156 47.353127L602.0156 47.478127Q602.0156 49.025 601.4219 50.259377Q600.8281 51.478127 599.71875 52.165627Q598.625 52.853127 597.2031 52.853127Q595.0625 52.853127 593.71875 51.353127Q592.3906 49.853127 592.3906 47.4L592.3906 47.275ZM594.2031 47.478127Q594.2031 49.24375 595.0156 50.30625Q595.84375 51.36875 597.2031 51.36875Q598.5781 51.36875 599.3906 50.290627Q600.2031 49.2125 600.2031 47.275Q600.2031 45.525 599.375 44.446877Q598.5469 43.36875 597.1875 43.36875Q595.84375 43.36875 595.0156 44.43125Q594.2031 45.49375 594.2031 47.478127ZM605.5781 42.0875L605.6406 43.415627Q606.84375 41.884377 608.7969 41.884377Q612.15625 41.884377 612.1719 45.665627L612.1719 52.65L610.375 52.65L610.375 45.65Q610.3594 44.509377 609.84375 43.9625Q609.34375 43.415627 608.25 43.415627Q607.375 43.415627 606.7031 43.884377Q606.0469 44.353127 605.6719 45.11875L605.6719 52.65L603.875 52.65L603.875 42.0875L605.5781 42.0875ZM622.03125 47.0875L622.03125 52.65L620.15625 52.65L620.15625 38.43125L625.3906 38.43125Q627.7344 38.43125 629.0469 39.61875Q630.375 40.80625 630.375 42.775Q630.375 44.853127 629.0781 45.978127Q627.78125 47.0875 625.375 47.0875L622.03125 47.0875ZM622.03125 45.55625L625.3906 45.55625Q626.90625 45.55625 627.7031 44.853127Q628.5 44.134377 628.5 42.790627Q628.5 41.525 627.7031 40.775Q626.90625 40.009377 625.5 39.978127L622.03125 39.978127L622.03125 45.55625ZM634.8281 52.65L633.03125 52.65L633.03125 37.65L634.8281 37.65L634.8281 52.65ZM644.3906 52.65Q644.2344 52.3375 644.1406 51.540627Q642.875 52.853127 641.125 52.853127Q639.5625 52.853127 638.5625 51.9625Q637.5625 51.071877 637.5625 49.7125Q637.5625 48.071877 638.8125 47.165627Q640.0781 46.24375 642.34375 46.24375L644.1094 46.24375L644.1094 45.415627Q644.1094 44.4625 643.53125 43.9Q642.96875 43.3375 641.875 43.3375Q640.90625 43.3375 640.25 43.8375Q639.59375 44.321877 639.59375 45.009377L637.78125 45.009377Q637.78125 44.228127 638.34375 43.49375Q638.90625 42.74375 639.8594 42.321877Q640.8281 41.884377 641.9844 41.884377Q643.8125 41.884377 644.84375 42.80625Q645.875 43.7125 645.9219 45.321877L645.9219 50.18125Q645.9219 51.634377 646.28125 52.49375L646.28125 52.65L644.3906 52.65ZM641.3906 51.275Q642.25 51.275 643.0 50.8375Q643.7656 50.4 644.1094 49.696877L644.1094 47.525L642.6875 47.525Q639.375 47.525 639.375 49.4625Q639.375 50.321877 639.9375 50.80625Q640.5 51.275 641.3906 51.275ZM650.5781 42.0875L650.6406 43.415627Q651.84375 41.884377 653.7969 41.884377Q657.15625 41.884377 657.1719 45.665627L657.1719 52.65L655.375 52.65L655.375 45.65Q655.3594 44.509377 654.84375 43.9625Q654.34375 43.415627 653.25 43.415627Q652.375 43.415627 651.7031 43.884377Q651.0469 44.353127 650.6719 45.11875L650.6719 52.65L648.875 52.65L648.875 42.0875L650.5781 42.0875Z" fill-rule="nonzero"/></svg>